<?xml version="1.0" encoding="utf-8"?>
<!-- Generator: Adobe Illustrator 16.0.4, SVG Export Plug-In . SVG Version: 6.00 Build 0)  -->
<!DOCTYPE svg PUBLIC "-//W3C//DTD SVG 1.1//EN" "http://www.w3.org/Graphics/SVG/1.1/DTD/svg11.dtd">
<svg version="1.1" id="Layer_1" xmlns="http://www.w3.org/2000/svg" xmlns:xlink="http://www.w3.org/1999/xlink" x="0px" y="0px"
	 width="24px" height="24px" viewBox="0 0 24 24" enable-background="new 0 0 24 24" xml:space="preserve">
<path fill="#E2E2E2" d="M19.742,15.284c3.127-3.127,3.127-8.215,0-11.343c-3.127-3.127-8.215-3.127-11.343,0
	c-2.733,2.734-3.077,6.968-1.03,10.078L1.84,19.549c-0.634,0.634-0.634,1.661,0,2.295c0.635,0.634,1.662,0.634,2.296,0l5.528-5.529
	C12.775,18.361,17.008,18.018,19.742,15.284z M10.695,12.989c-1.861-1.861-1.861-4.891,0-6.753c1.861-1.861,4.891-1.861,6.752,0
	c1.862,1.862,1.861,4.892,0,6.753S12.557,14.851,10.695,12.989z"/>
</svg>
