<?xml version="1.0" encoding="utf-8"?>
<!-- Generator: Adobe Illustrator 16.0.4, SVG Export Plug-In . SVG Version: 6.00 Build 0)  -->
<!DOCTYPE svg PUBLIC "-//W3C//DTD SVG 1.1//EN" "http://www.w3.org/Graphics/SVG/1.1/DTD/svg11.dtd">
<svg version="1.1" id="Layer_1" xmlns="http://www.w3.org/2000/svg" xmlns:xlink="http://www.w3.org/1999/xlink" x="0px" y="0px"
	 width="128.75px" height="90px" viewBox="0 -26.5 128.75 90" enable-background="new 0 -26.5 128.75 90" xml:space="preserve">
<g opacity="0.1">
	<path fill="none" stroke="#000000" stroke-width="7.8849" stroke-linecap="round" stroke-linejoin="round" d="M15.734,16.23
		c7.715,0,7.715,15.77,15.43,15.77c7.716,0,7.716-15.77,15.432-15.77c7.713,0,7.713,15.77,15.427,15.77
		c7.716,0,7.716-15.77,15.433-15.77S85.172,32,92.889,32c7.719,0,7.719-15.77,15.437-15.77S116.042,32,123.76,32"/>
</g>
<g>
	<path fill="none" stroke="#F78C98" stroke-width="7.8849" stroke-linecap="round" stroke-linejoin="round" d="M5.771,5.639
		c7.715,0,7.715,15.771,15.43,15.771c7.716,0,7.716-15.771,15.431-15.771c7.713,0,7.713,15.771,15.427,15.771
		c7.716,0,7.716-15.771,15.433-15.771c7.717,0,7.717,15.771,15.433,15.771c7.718,0,7.718-15.771,15.437-15.771
		c7.718,0,7.718,15.771,15.436,15.771"/>
</g>
</svg>
