<?xml version="1.0" encoding="utf-8"?>
<!-- Generator: Adobe Illustrator 16.0.4, SVG Export Plug-In . SVG Version: 6.00 Build 0)  -->
<!DOCTYPE svg PUBLIC "-//W3C//DTD SVG 1.1//EN" "http://www.w3.org/Graphics/SVG/1.1/DTD/svg11.dtd">
<svg version="1.1" id="Layer_1" xmlns="http://www.w3.org/2000/svg" xmlns:xlink="http://www.w3.org/1999/xlink" x="0px" y="0px"
	 width="106px" height="98px" viewBox="0 0 106 98" enable-background="new 0 0 106 98" xml:space="preserve">
<path fill="none" stroke="#FFFFFF" stroke-width="8" stroke-miterlimit="10" d="M0,44.667h10.639c3.512,0,5.361,1.744,5.361,5.255
	v9.841v8.102v-1.861c0,3.514,3.846,6.664,7.359,6.664h0.78c3.512,0,6.861-3.15,6.861-6.664V12.121c0-3.513,2.346-6.454,5.859-6.454
	h0.781c3.512,0,5.36,2.941,5.36,6.454v9.841v8.1v53.042c0,3.512,3.848,7.562,7.359,7.562h0.781c3.512,0,5.86-4.051,5.86-7.562
	V29.222c0-3.513,3.35-6.555,6.859-6.555h0.781c3.513,0,5.359,3.042,5.359,6.555v10.74v8.1v7.142c0,3.512,3.849,7.463,7.36,7.463
	h0.781c3.513,0,5.858-3.951,5.858-7.463v-4.381c0-3.513,3.35-6.156,6.861-6.156H106"/>
</svg>
