<?xml version="1.0" encoding="utf-8"?>
<!-- Generator: Adobe Illustrator 16.0.4, SVG Export Plug-In . SVG Version: 6.00 Build 0)  -->
<!DOCTYPE svg PUBLIC "-//W3C//DTD SVG 1.1//EN" "http://www.w3.org/Graphics/SVG/1.1/DTD/svg11.dtd">
<svg version="1.1" id="Layer_1" xmlns="http://www.w3.org/2000/svg" xmlns:xlink="http://www.w3.org/1999/xlink" x="0px" y="0px"
	 width="16px" height="16px" viewBox="4 4 16 16" enable-background="new 4 4 16 16" xml:space="preserve">
<g>
	<path fill="#FFFFFF" d="M7.375,7H7C6.447,7,6,6.552,6,6s0.447-1,1-1h0.375c0.553,0,1,0.448,1,1S7.928,7,7.375,7z"/>
	<path fill="#FFFFFF" d="M7.375,10.5H7c-0.553,0-1-0.448-1-1s0.447-1,1-1h0.375c0.553,0,1,0.448,1,1S7.928,10.5,7.375,10.5z"/>
	<path fill="#FFFFFF" d="M7.375,14H7c-0.553,0-1-0.447-1-1s0.447-1,1-1h0.375c0.553,0,1,0.447,1,1S7.928,14,7.375,14z"/>
	<path fill="#FFFFFF" d="M17.75,7h-7.125c-0.553,0-1-0.448-1-1s0.447-1,1-1h7.125c0.553,0,1,0.448,1,1S18.303,7,17.75,7z"/>
	<path fill="#FFFFFF" d="M17.75,10.5h-7.125c-0.553,0-1-0.448-1-1s0.447-1,1-1h7.125c0.553,0,1,0.448,1,1S18.303,10.5,17.75,10.5z"
		/>
	<path fill="#FFFFFF" d="M17.75,14h-7.125c-0.553,0-1-0.447-1-1s0.447-1,1-1h7.125c0.553,0,1,0.447,1,1S18.303,14,17.75,14z"/>
</g>
</svg>
